<?xml version="1.0" standalone="no"?><!DOCTYPE svg PUBLIC "-//W3C//DTD SVG 1.1//EN" "http://www.w3.org/Graphics/SVG/1.1/DTD/svg11.dtd"><svg class="icon" width="16px" height="16.00px" viewBox="0 0 1024 1024" version="1.1" xmlns="http://www.w3.org/2000/svg"><path d="M817.8 472.9c-5-23.4-3.7-59.7-15.4-89.6-3.5 5.4-8.4 9.6-14.9 11.8-4.9 1.7-9.3 2.2-13.2 1.9 24.4 20.3 12 40.1 24.6 77.2 17 49.9-61.6 92.9-137.3 36.5s62.7-139.2 71.8-135.5c8.3 3.3 15.3 6.4 21.3 9.5-7.7-11.9-8.4-28-5.2-28.9 6.5-1.8 12.4-6.8 17.7-13.1-20.9-10.8-51.6-14.5-97.5-5.9 0 0 0.2-31.7-23.9-54-10.3 8.9-20.2 19.1-26.9 29.4 26.2 32.6 7.3 103.3-87.4 141.1C413.8 499.9 496 350.1 496 350.1c-2.5-4.5 32.6-56.7 82.4-55.8 1-3.9 2.5-8.1 4.7-12.9 3.5-7.6 8.1-14.1 13.4-19.5-22-2.4-50.7 0.4-88 11.8 0 0-11.4-21.9-32.6-42.4-9.3 7.9-18.5 16.8-25.5 26 7.5 8.1 12 19.4 11 34.9-4.5 67.3-48.8 96.5-76.5 81.1-27.7-15.5-86.2-44.9-18.2-135.4 0 0 20-2.6 41.6 0.6 0.7-2 1.6-4.1 2.6-6.3 5.7-12.4 14.3-21.7 24.2-28.4-34.1-13.9-79-11.3-132.6 39.1-127.7 120.2-103 353.1-103 353.1 30.8 121.7 213.3 302.4 416 173.3 169.9-108.2 213.1-245.6 202.3-296.4zM587.6 696.6c-35 61-133.9 70.1-220.9 20.2S237.6 577 272.6 515.9s133.9-70.1 220.9-20.2 129.1 139.9 94.1 200.9z" fill="#EDEDED" /><path d="M408.2 238.6c-21.6-3.2-41.6-0.6-41.6-0.6-68 90.5-9.5 119.9 18.2 135.4s72-13.7 76.5-81.1c1-15.5-3.5-26.8-11-34.9-3.8 5-7 10.1-9.1 15.2-3 7.6-49.8 11.4-33-34zM578.4 294.3c-49.9-0.9-84.9 51.2-82.4 55.8 0 0-82.2 149.8 35.4 102.9 94.8-37.8 113.6-108.4 87.4-141.1-2.1 3.3-3.9 6.6-5.3 9.9-2.9 7.2-45.2 10.9-35.1-27.5zM754.7 384.6c-6-3.1-13-6.2-21.3-9.5-9.2-3.6-147.6 79.1-71.8 135.5s154.3 13.4 137.3-36.5c-12.6-37.1-0.2-57-24.6-77.2-9-0.6-15.4-5.8-19.6-12.3zM493.5 495.8c-87-49.9-185.9-40.9-220.9 20.2s7.1 151 94.1 200.8 185.9 40.9 220.9-20.2c35-61-7.1-150.9-94.1-200.8z m-182.6 9.4c-34.6 119.9 58.7 174.5 84.8 187.2 2.1 1 4.3 2 6.6 3 0 0-2.4-1-6.6-3C238.9 619.8 313 498 310.9 505.2z" fill="#FCD0D7" /><path d="M395.7 692.4c4.1 2 6.6 3 6.6 3-2.3-1-4.4-2-6.6-3zM310.9 505.2c2.1-7.2-72 114.6 84.8 187.2-26.1-12.6-119.4-67.3-84.8-187.2z" fill="#FFFFFF" /><path d="M410.9 232.3c-1 2.2-1.9 4.3-2.6 6.3-16.8 45.4 29.9 41.6 33.1 34.1 2.1-5.1 5.3-10.2 9.1-15.2 7-9.2 16.2-18.1 25.5-26 19.8-16.8 40.1-28.9 40.1-28.9-4.6-14.4-49.4-19.8-80.9 1.4-10.1 6.5-18.7 15.8-24.3 28.3zM578.4 294.3c-10.1 38.4 32.2 34.6 35.2 27.5 1.4-3.3 3.2-6.6 5.3-9.9 6.7-10.3 16.6-20.4 26.9-29.4 20.6-17.9 42.5-31 42.5-31-5.2-16.2-60.8-20.9-91.8 10.4-5.3 5.4-9.9 11.8-13.4 19.5-2.1 4.8-3.7 9.1-4.7 12.9zM749.4 355.7c-3.2 0.9-2.5 17.1 5.2 28.9 4.2 6.5 10.6 11.7 19.6 12.4 3.9 0.3 8.3-0.2 13.2-1.9 6.5-2.2 11.4-6.4 14.9-11.8 16.3-25.5 2.5-78.8-10.9-87.3 0 0-9.5 28.7-24.3 46.6-5.2 6.3-11.2 11.3-17.7 13.1z" fill="#F7EBD0" /></svg>